<svg width="191" height="64" viewBox="0 0 191 64" fill="none" xmlns="http://www.w3.org/2000/svg">
<path d="M65.374 21.6885L49.712 5.92564C45.9142 2.10741 40.9619 0.054435 35.9868 0C31.0118 0.054435 26.0595 2.10741 22.2617 5.92564L6.59973 21.6885C-1.08695 29.426 -1.08695 41.9616 6.59973 49.6914L8.57455 51.6821C12.0989 55.2282 30.4345 63.3157 32.0827 64V33.392C32.0827 32.4588 31.4447 31.6112 30.5788 31.2612L20.811 27.3497C19.9907 28.0496 18.9501 28.4695 17.8031 28.4695C15.2131 28.4695 13.1167 26.3232 13.1167 23.6714C13.1167 21.0197 15.2131 18.8734 17.8031 18.8734C20.1957 18.8734 22.1782 20.7164 22.4516 23.0882L31.9612 26.8909C33.2601 27.4041 34.6197 27.6763 35.9944 27.6996C37.3692 27.6763 38.7288 27.4197 40.0277 26.8909L49.5373 23.0882C49.8259 20.7164 51.7932 18.8734 54.1858 18.8734C56.7758 18.8734 58.8722 21.0197 58.8722 23.6714C58.8722 26.3232 56.7758 28.4695 54.1858 28.4695C53.0388 28.4695 51.983 28.0496 51.1779 27.3497L41.4025 31.2612C40.529 31.6034 39.8986 32.4433 39.8986 33.392V64C41.5468 63.3157 59.8824 55.2282 63.4067 51.6821L65.3816 49.6914C73.0835 41.9538 73.0835 29.4182 65.3892 21.6885M35.9944 20.9575C32.8727 20.9575 30.3358 18.3601 30.3358 15.164C30.3358 11.9679 32.8727 9.37059 35.9944 9.37059C39.1162 9.37059 41.6531 11.9679 41.6531 15.164C41.6531 18.3601 39.1162 20.9575 35.9944 20.9575Z" fill="white"/>
<path d="M94.0777 12.5747H90.8116V33.4311H94.0777V12.5747Z" fill="white"/>
<path d="M102.569 33.4389H105.835V15.522L111.851 15.5531V12.5747H96.5917V15.5531L102.569 15.522V33.4389Z" fill="white"/>
<path d="M124.809 25.9423H128.371C129.458 25.9423 130.437 25.7635 131.318 25.4213C132.192 25.0791 132.936 24.597 133.552 23.9827C134.167 23.3683 134.645 22.6607 134.972 21.8441C135.306 21.0354 135.473 20.1567 135.473 19.2002C135.473 18.2437 135.321 17.4116 135.002 16.5873C134.683 15.7785 134.235 15.0786 133.643 14.4799C133.05 13.8811 132.329 13.4145 131.47 13.0723C130.612 12.7302 129.64 12.5591 128.554 12.5591H121.543V33.4155H124.809V25.9345V25.9423ZM124.801 15.553H128.546C129.746 15.553 130.642 15.8796 131.273 16.5406C131.903 17.2016 132.215 18.0881 132.215 19.2002C132.215 20.3744 131.881 21.2998 131.189 21.9686C130.513 22.6373 129.571 22.9717 128.364 22.9717H124.801V15.553Z" fill="white"/>
<path d="M145.94 12.5747H142.613L135.177 33.4311H138.565L140.312 28.2986H148.196L149.981 33.4311H153.368L145.932 12.5747H145.94ZM141.329 25.4136L142.841 20.9888L144.231 16.043H144.292L145.682 20.9888L147.186 25.4136H141.322H141.329Z" fill="white"/>
<path d="M169.266 22.723C170.071 21.6576 170.473 20.4056 170.473 18.9592C170.473 18.0649 170.322 17.2406 170.003 16.463C169.684 15.7009 169.235 15.0166 168.643 14.4411C168.05 13.8657 167.314 13.4069 166.433 13.0802C165.552 12.7536 164.557 12.5903 163.455 12.5903H155.989V33.4467H159.255V25.4681H162.794L167.329 33.4467H170.83L166.03 24.9704C167.382 24.5271 168.453 23.7884 169.266 22.7308V22.723ZM159.255 22.4819V15.5532H163.463C164.708 15.5532 165.643 15.8642 166.265 16.4863C166.888 17.1084 167.207 17.9327 167.207 18.9592C167.207 19.9857 166.881 20.8878 166.197 21.5254C165.521 22.1631 164.579 22.4819 163.372 22.4819H159.255Z" fill="white"/>
<path d="M177.241 12.5747H173.975V33.4311H177.241V12.5747Z" fill="white"/>
<path d="M190.207 33.4389L181.388 22.3575L189.941 12.5903H186.196L178.396 21.4632V23.384L186.341 33.4389H190.207Z" fill="white"/>
<path d="M92.9154 45.9197C91.6698 45.8264 91.3203 45.4609 91.3203 44.8077C91.3203 43.8123 92.0268 43.5402 93.1509 43.5402C93.675 43.5402 94.4117 43.6412 94.7004 43.7812L94.8827 43.1824C94.3889 43.0347 93.6978 42.9336 93.1433 42.9336C91.5938 42.9336 90.614 43.4391 90.614 44.8233C90.614 46.0053 91.2976 46.4252 92.8167 46.5419C94.0624 46.6352 94.4117 47.1484 94.4117 47.7861C94.4117 48.7815 93.6446 49.0536 92.5281 49.0536C92.0343 49.0536 91.3203 48.9603 90.933 48.8126L90.7507 49.4114C91.2444 49.5669 91.9811 49.6758 92.5432 49.6758C94.0775 49.6758 95.1029 49.1625 95.1029 47.7861C95.1029 46.6041 94.4345 46.0442 92.923 45.9197H92.9154Z" fill="white"/>
<path d="M100.777 43.0972H95.741V43.6571H97.9285V49.5516H98.5969V43.6571H100.777V43.0972Z" fill="white"/>
<path d="M102.691 43.0972C101.817 45.259 101.043 47.3975 100.313 49.5516H100.959C101.172 48.8673 101.392 48.2218 101.612 47.5608H104.681C104.939 48.2607 105.205 48.9373 105.44 49.5516H106.177C105.41 47.763 104.521 45.2746 103.8 43.0972H102.683H102.691ZM101.817 47.0087C102.205 45.8967 102.645 44.7769 103.093 43.626H103.367C103.716 44.7458 104.104 45.92 104.491 47.0087H101.81H101.817Z" fill="white"/>
<path d="M109.945 46.6743C111.335 46.6743 111.768 45.8811 111.768 44.9635C111.768 43.9759 111.38 43.0972 109.975 43.0972H107.157V49.5516H107.81V46.7521H109.026C109.496 46.7521 110.324 47.7475 111.327 49.5516H112.147C111.183 47.9186 110.385 46.8299 109.937 46.6665L109.945 46.6743ZM107.803 46.1689V43.6571H109.975C110.659 43.6493 111.038 44.1159 111.038 44.9557C111.038 45.7023 110.659 46.1689 109.922 46.1689H107.803Z" fill="white"/>
<path d="M112.406 43.6571H114.593V49.5516H115.261L115.254 43.6571H117.434V43.0972H112.406V43.6571Z" fill="white"/>
<path d="M121.353 48.3461V42.856H120.768V48.3772C120.768 49.0615 120.966 49.3726 121.338 49.7381L121.787 49.3493C121.46 49.0149 121.353 48.7971 121.353 48.3461Z" fill="white"/>
<path d="M124.733 44.7534C123.328 44.7534 122.667 45.29 122.667 47.1952C122.667 49.1004 123.32 49.6915 124.733 49.6915C126.146 49.6915 126.814 49.116 126.814 47.1952C126.814 45.2744 126.161 44.7534 124.733 44.7534ZM124.741 49.1315C123.662 49.1315 123.32 48.7349 123.32 47.2108C123.32 45.6088 123.67 45.29 124.741 45.3055C125.827 45.3055 126.176 45.6166 126.176 47.2108C126.176 48.8049 125.819 49.1315 124.741 49.1315Z" fill="white"/>
<path d="M130.156 45.3288C130.536 45.3288 130.946 45.391 131.273 45.5466L131.47 44.9789C131.151 44.8545 130.551 44.7456 130.172 44.7456C128.759 44.7456 127.961 45.2822 127.961 47.1874C127.961 49.0926 128.751 49.6836 130.172 49.6836C130.559 49.6836 131.121 49.5825 131.47 49.4192L131.273 48.8671C130.946 49.0149 130.544 49.1082 130.156 49.1082C129.093 49.1082 128.599 48.7271 128.599 47.2107C128.599 45.6943 129.093 45.3211 130.156 45.3211V45.3288Z" fill="white"/>
<path d="M133.916 44.73C133.301 44.73 132.746 44.8544 132.405 44.9633L132.579 45.531C132.936 45.3754 133.46 45.3132 133.893 45.3132C134.957 45.3132 135.245 45.5543 135.245 46.7052C134.774 46.6041 134.425 46.5574 133.946 46.5574C132.921 46.5574 132.131 46.7752 132.131 48.105C132.131 49.3103 132.67 49.6758 133.984 49.6758C134.554 49.6758 135.337 49.5358 135.83 49.3103V46.5419C135.83 45.1266 135.261 44.73 133.924 44.73H133.916ZM135.238 48.9137C134.888 49.0381 134.448 49.1237 134.007 49.1237C133.058 49.1237 132.792 48.9837 132.792 48.0583C132.792 47.1951 133.096 47.094 134.007 47.094C134.455 47.094 134.896 47.1329 135.238 47.2184V48.9137Z" fill="white"/>
<path d="M137.783 42.856H137.19V48.3772C137.19 49.0615 137.387 49.3726 137.76 49.7381L138.208 49.3493C137.881 49.0149 137.775 48.7971 137.775 48.3461V42.856H137.783Z" fill="white"/>
<path d="M147.573 45.8342H146.965C146.965 46.4875 146.768 47.094 146.434 47.615C145.636 46.4486 145.188 46.1453 144.732 46.0986C145.871 45.9975 146.077 45.2821 146.077 44.5122C146.077 43.478 145.484 42.9414 144.094 42.9414C142.704 42.9414 142.112 43.5246 142.112 44.5667C142.112 45.3288 142.165 46.0131 143.297 46.1142C142.096 46.1686 141.671 46.954 141.671 47.8328C141.671 49.2714 142.446 49.6758 143.912 49.6758C145.097 49.6758 145.598 49.3492 146.38 48.5871C146.578 48.8826 146.783 49.2092 146.965 49.5514H147.702C147.375 48.9992 147.087 48.5171 146.798 48.0972C147.299 47.4362 147.596 46.6274 147.573 45.8342ZM142.795 44.5978C142.795 43.8201 143.129 43.5091 144.109 43.5091C145.089 43.5091 145.439 43.8357 145.439 44.6133C145.439 45.4765 144.937 45.8265 144.033 45.8265C143.13 45.8265 142.795 45.461 142.795 44.5978ZM143.919 49.1237C142.719 49.1237 142.37 48.7426 142.37 47.7628C142.37 46.783 142.902 46.3708 144.011 46.3708C144.755 46.3708 145.355 47.024 146.077 48.1127C145.393 48.8748 144.983 49.1314 143.919 49.1314V49.1237Z" fill="white"/>
<path d="M153.642 46.6275H155.29V48.9526C155.017 49.0226 154.515 49.1082 154.021 49.1082C152.426 49.1082 151.834 48.6338 151.834 46.2775C151.834 43.9213 152.426 43.5402 154.021 43.5402C154.515 43.5402 155.191 43.6335 155.571 43.7813L155.776 43.1981C155.298 43.0503 154.576 42.9492 154.014 42.9492C152.062 42.9492 151.128 43.6335 151.128 46.2698C151.128 48.906 152.062 49.6836 154.014 49.6836C154.576 49.6836 155.449 49.6292 155.936 49.4736V46.0909H153.642V46.6275Z" fill="white"/>
<path d="M160.113 42.9414C158.161 42.9414 157.257 43.6646 157.257 46.293C157.257 48.9215 158.146 49.6913 160.113 49.6758C162.08 49.6758 162.977 48.9604 162.977 46.293C162.977 43.6257 162.073 42.9414 160.113 42.9414ZM160.106 49.1081C158.51 49.1081 157.956 48.5715 157.956 46.3164C157.956 43.9446 158.51 43.5091 160.106 43.5091C161.701 43.5091 162.285 43.9523 162.285 46.3164C162.285 48.6804 161.723 49.1081 160.106 49.1081Z" fill="white"/>
<path d="M170.618 45.1111C170.124 44.8778 169.327 44.7456 168.772 44.7456C167.359 44.7456 166.706 45.2822 166.706 47.1874C166.706 49.0926 167.352 49.6836 168.772 49.6836C169.425 49.6836 169.805 49.4814 170.033 49.2948C170.033 50.539 169.425 50.8579 168.362 50.8579C168.035 50.8579 167.382 50.7412 167.063 50.5857L166.888 51.1612C167.223 51.3089 167.974 51.4333 168.362 51.4333C169.782 51.4333 170.625 50.9434 170.625 49.2093H170.618V45.1111ZM170.048 48.4472C170.048 48.8904 169.463 49.116 168.787 49.116C167.709 49.116 167.367 48.7349 167.367 47.2185C167.367 45.6166 167.716 45.3211 168.787 45.3211C169.235 45.3211 169.699 45.391 170.048 45.5232V48.4472Z" fill="white"/>
<path d="M172.593 42.856H172V48.3772C172 49.0615 172.198 49.3726 172.57 49.7381L173.019 49.3493C172.692 49.0149 172.585 48.7971 172.585 48.3461V42.856H172.593Z" fill="white"/>
<path d="M175.957 44.7534C174.545 44.7534 173.891 45.29 173.891 47.1952C173.891 49.1004 174.545 49.6915 175.957 49.6915C177.37 49.6915 178.039 49.116 178.039 47.1952C178.039 45.2744 177.385 44.7534 175.957 44.7534ZM175.965 49.1315C174.886 49.1315 174.545 48.7349 174.545 47.2108C174.545 45.6088 174.894 45.29 175.965 45.3055C177.051 45.3055 177.401 45.6166 177.401 47.2108C177.401 48.8049 177.044 49.1315 175.965 49.1315Z" fill="white"/>
<path d="M181.16 44.7535C180.507 44.7535 180.127 44.9401 179.899 45.1345V42.8716H179.307V49.3182C179.801 49.5515 180.598 49.6837 181.153 49.6837C182.566 49.6837 183.219 49.1472 183.219 47.2342C183.219 45.3212 182.573 44.7535 181.16 44.7613V44.7535ZM181.153 49.1161C180.705 49.1161 180.241 49.0461 179.892 48.9139V45.9822C179.892 45.5544 180.477 45.3212 181.153 45.3212C182.231 45.3212 182.573 45.7022 182.573 47.2186C182.573 48.735 182.216 49.1161 181.153 49.1161Z" fill="white"/>
<path d="M186.105 44.73C185.49 44.73 184.935 44.8544 184.594 44.9633L184.768 45.531C185.125 45.3754 185.649 45.3132 186.082 45.3132C187.146 45.3132 187.434 45.5543 187.434 46.7052C186.963 46.6041 186.614 46.5574 186.135 46.5574C185.11 46.5574 184.32 46.7752 184.32 48.105C184.32 49.3103 184.859 49.6758 186.173 49.6758C186.743 49.6758 187.525 49.5358 188.019 49.3103V46.5419C188.019 45.1266 187.449 44.73 186.113 44.73H186.105ZM187.427 48.9137C187.077 49.0381 186.637 49.1237 186.196 49.1237C185.247 49.1237 184.981 48.9837 184.981 48.0583C184.981 47.1951 185.285 47.094 186.196 47.094C186.644 47.094 187.085 47.1329 187.427 47.2184V48.9137Z" fill="white"/>
<path d="M189.972 48.3461V42.856H189.379V48.3772C189.379 49.0615 189.576 49.3726 189.949 49.7381L190.397 49.3493C190.07 49.0149 189.964 48.7971 189.964 48.3461H189.972Z" fill="white"/>
</svg>
