<svg width="246" height="64" viewBox="0 0 246 64" fill="none" xmlns="http://www.w3.org/2000/svg">
<path d="M22.779 18.5001C23.6525 18.6401 24.488 19.0678 25.1033 19.7132L39.831 8.77959L31.2556 0L22.7942 8.67849L22.779 18.4923V18.5001Z" fill="white"/>
<path d="M25.8552 20.7632C26.0527 21.1598 26.1818 21.5642 26.2578 22.0074H53.3586V9.39404H41.2134L25.8552 20.771V20.7632Z" fill="white"/>
<path d="M54.0118 23.2827H26.2654C26.1742 23.9748 25.9084 24.6203 25.5134 25.1879L53.351 53.6885V41.3551L62.5037 31.9845L54.0118 23.2905V23.2827Z" fill="white"/>
<path d="M18.0698 21.9915C18.1761 21.3305 18.442 20.7162 18.8217 20.1641L9.15262 10.2725V21.9915H18.0622H18.0698Z" fill="white"/>
<path d="M21.5106 18.5001L21.5257 9.36279H10.0489L19.7104 19.2544C20.2497 18.8734 20.8649 18.609 21.5106 18.5001Z" fill="white"/>
<path d="M24.6247 26.1211C24.0702 26.5332 23.4398 26.8132 22.7638 26.9065L22.7334 55.2671L31.2556 63.9923L40.4082 54.6217H52.4548L24.6247 26.1211Z" fill="white"/>
<path d="M21.5106 26.8907C21.0776 26.8285 20.6675 26.6885 20.2801 26.4785L9.16782 42.2958V54.5981H21.4802L21.5106 26.8829V26.8907Z" fill="white"/>
<path d="M19.2547 25.7323C18.6091 25.0869 18.1761 24.2237 18.0546 23.2905H8.49181L0 31.9846L8.63613 40.8264L19.2547 25.7323Z" fill="white"/>
<path d="M76.7605 21.2997L76.7453 16.6805L74.5274 20.4754H73.745L71.5423 16.7739V21.292H69.9093V13.6011H71.3373L74.1552 18.3758L76.9276 13.6011H78.3555L78.3707 21.292H76.7529L76.7605 21.2997Z" fill="white"/>
<path d="M80.1785 13.6167H81.9178V21.3076H80.1785V13.6167Z" fill="white"/>
<path d="M90.5768 13.6167V21.3076H89.1488L85.4118 16.6417V21.3076H83.6876V13.6167H85.1156L88.8526 18.2826V13.6167H90.5768Z" fill="white"/>
<path d="M92.3617 13.6167H94.1011V21.3076H92.3617V13.6167Z" fill="white"/>
<path d="M96.6304 21.1909C96.0759 21.0353 95.6278 20.8098 95.2936 20.5454L95.8784 19.2079C96.205 19.4412 96.5848 19.6511 97.033 19.7911C97.4811 19.9311 97.9292 20.0088 98.3546 20.0088C98.8483 20.0088 99.2129 19.9311 99.4483 19.7911C99.6762 19.6356 99.8053 19.4412 99.8053 19.1923C99.8053 19.0057 99.7294 18.8579 99.5926 18.7335C99.4559 18.6091 99.266 18.5158 99.0534 18.4535C98.8407 18.3758 98.5445 18.298 98.1571 18.2203C97.5874 18.0803 97.1089 17.9403 96.7595 17.7926C96.3873 17.6526 96.0835 17.4271 95.8177 17.116C95.5594 16.7972 95.4303 16.3928 95.4303 15.8873C95.4303 15.4441 95.5518 15.0397 95.7873 14.6742C96.0152 14.3087 96.3721 14.0288 96.8507 13.811C97.3292 13.6088 97.914 13.4922 98.59 13.4922C99.0686 13.4922 99.5471 13.5544 99.9876 13.6633C100.451 13.7721 100.846 13.9432 101.188 14.1687L100.648 15.5218C99.9572 15.1097 99.266 14.9231 98.5673 14.9231C98.0735 14.9231 97.7242 15.0008 97.4887 15.1563C97.2532 15.3119 97.1317 15.5374 97.1317 15.7862C97.1317 16.0351 97.2684 16.245 97.5343 16.3695C97.7925 16.4939 98.2103 16.6183 98.7647 16.7505C99.3344 16.8905 99.8129 17.0305 100.162 17.1782C100.534 17.3182 100.838 17.5437 101.104 17.8392C101.362 18.1347 101.492 18.5469 101.492 19.0523C101.492 19.4956 101.37 19.8844 101.135 20.2499C100.891 20.6154 100.534 20.8953 100.056 21.1131C99.5775 21.3153 98.9926 21.4319 98.3014 21.4319C97.7621 21.4475 97.1773 21.3697 96.6228 21.1986L96.6304 21.1909Z" fill="white"/>
<path d="M104.18 15.0631H101.78V13.6167H108.32V15.0631H105.92V21.2998H104.18V15.0631Z" fill="white"/>
<path d="M114.047 21.2998L112.604 19.1535H111.001V21.2998H109.262V13.6089H112.505C113.166 13.6089 113.751 13.7178 114.244 13.9588C114.738 14.1766 115.103 14.511 115.384 14.9231C115.642 15.3508 115.786 15.8407 115.786 16.4006C115.786 16.9605 115.65 17.4738 115.384 17.8781C115.126 18.2903 114.738 18.6014 114.244 18.8269L115.923 21.2998H114.047ZM113.599 15.4052C113.325 15.1719 112.938 15.0553 112.414 15.0553H111.001V17.7304H112.414C112.938 17.7304 113.341 17.6215 113.599 17.3805C113.872 17.1472 114.017 16.8128 114.017 16.3851C114.017 15.9574 113.88 15.6308 113.599 15.3897V15.4052Z" fill="white"/>
<path d="M120.647 18.5937V21.3232H118.908V18.5781L115.999 13.6323H117.845L119.842 17.054L121.84 13.6323H123.549L120.64 18.5937H120.647Z" fill="white"/>
<path d="M128.866 20.9266C128.235 20.5766 127.742 20.11 127.392 19.5113C127.043 18.9125 126.853 18.2359 126.853 17.4816C126.853 16.7273 127.035 16.0507 127.392 15.452C127.749 14.8532 128.235 14.3788 128.866 14.0366C129.496 13.6945 130.187 13.5156 130.977 13.5156C131.767 13.5156 132.451 13.6867 133.089 14.0366C133.727 14.3866 134.198 14.8532 134.563 15.452C134.919 16.0507 135.102 16.7273 135.102 17.4816C135.102 18.2359 134.919 18.9125 134.563 19.5113C134.206 20.11 133.719 20.5844 133.089 20.9266C132.474 21.2765 131.767 21.4476 130.977 21.4476C130.187 21.4476 129.481 21.2765 128.866 20.9266ZM132.178 19.6201C132.534 19.4179 132.808 19.1147 133.021 18.7569C133.218 18.3759 133.332 17.956 133.332 17.4816C133.332 17.0072 133.226 16.5873 133.021 16.2063C132.816 15.8252 132.527 15.5453 132.178 15.3431C131.828 15.1409 131.426 15.0243 130.977 15.0243C130.529 15.0243 130.134 15.1331 129.777 15.3431C129.42 15.553 129.147 15.8486 128.934 16.2063C128.722 16.564 128.623 17.0072 128.623 17.4816C128.623 17.956 128.729 18.3759 128.934 18.7569C129.139 19.138 129.413 19.4179 129.777 19.6201C130.134 19.8223 130.529 19.939 130.977 19.939C131.426 19.939 131.821 19.8301 132.178 19.6201Z" fill="white"/>
<path d="M138.132 15.0476V17.0772H141.611V18.5081H138.132V21.3154H136.393V13.6245H142.074V15.0554H138.132V15.0398V15.0476Z" fill="white"/>
<path d="M69.9245 26.7978H73.3425C74.1552 26.7978 74.8844 26.9533 75.5148 27.2722C76.1452 27.591 76.6238 28.042 76.9732 28.6097C77.3301 29.193 77.4973 29.854 77.4973 30.6238C77.4973 31.3937 77.3301 32.0702 76.9732 32.6379C76.6162 33.2211 76.1452 33.6644 75.5148 33.9755C74.8844 34.2865 74.1628 34.4498 73.3425 34.4498H69.9245V26.79V26.7978ZM73.2513 33.0345C74.0033 33.0345 74.6033 32.8168 75.0515 32.3891C75.4996 31.9614 75.7275 31.3781 75.7275 30.6394C75.7275 29.9006 75.4996 29.3329 75.0515 28.8897C74.6033 28.462 74.0033 28.2442 73.2513 28.2442H71.6639V33.019H73.2513V33.0345Z" fill="white"/>
<path d="M78.7885 26.7979H80.5279V34.4887H78.7885V26.7979Z" fill="white"/>
<path d="M87.3942 30.5305H88.9817V33.6489C88.5791 33.9677 88.1082 34.201 87.5689 34.3721C87.0296 34.5432 86.4904 34.6209 85.9511 34.6209C85.1687 34.6209 84.4775 34.4498 83.8395 34.1155C83.2015 33.7811 82.7306 33.2989 82.3812 32.7001C82.0318 32.1014 81.8419 31.4093 81.8419 30.6549C81.8419 29.9006 82.0242 29.2085 82.3812 28.6097C82.7382 28.011 83.2243 27.5366 83.8547 27.1944C84.4851 26.8523 85.1915 26.689 85.9815 26.689C86.6423 26.689 87.2423 26.7978 87.7664 27.0389C88.3057 27.2566 88.7538 27.591 89.1184 28.0343L87.9943 29.0919C87.455 28.5086 86.8094 28.2287 86.0574 28.2287C85.5789 28.2287 85.1459 28.3376 84.7814 28.5475C84.4092 28.7497 84.1205 29.0374 83.9231 29.4107C83.7256 29.784 83.6116 30.2117 83.6116 30.7016C83.6116 31.1915 83.718 31.5959 83.9231 31.9769C84.1281 32.358 84.4168 32.6379 84.7814 32.8401C85.1535 33.0423 85.5637 33.159 86.0422 33.159C86.5511 33.159 86.9993 33.0501 87.3942 32.8246V30.5383V30.5305Z" fill="white"/>
<path d="M90.5768 26.7979H92.3161V34.4887H90.5768V26.7979Z" fill="white"/>
<path d="M95.6582 28.2521H93.258V26.8057H99.7978V28.2521H97.3976V34.4888H95.6582V28.2521Z" fill="white"/>
<path d="M105.305 32.8475H101.811L101.15 34.5039H99.3648L102.722 26.813H104.446L107.803 34.5039H105.973L105.312 32.8475H105.305ZM104.765 31.4944L103.58 28.5471L102.395 31.4944H104.765Z" fill="white"/>
<path d="M108.586 26.7978H110.325V33.0345H114.093V34.4809H108.586V26.79V26.7978Z" fill="white"/>
<path d="M119.668 28.2521H117.267V26.8057H123.807V28.2521H121.407V34.4888H119.668V28.2521Z" fill="white"/>
<path d="M130.56 33.0734V34.5043H124.741V26.7979H130.423V28.2287H126.466V29.9006H129.96V31.2849H126.466V33.0657H130.56V33.0734Z" fill="white"/>
<path d="M133.438 34.1076C132.823 33.7577 132.329 33.2911 131.98 32.6923C131.631 32.0935 131.441 31.4014 131.441 30.6471C131.441 29.8928 131.623 29.2007 131.98 28.6019C132.337 28.0031 132.823 27.5288 133.438 27.1866C134.054 26.8445 134.745 26.6812 135.535 26.6812C136.18 26.6812 136.78 26.79 137.304 27.0311C137.829 27.2722 138.277 27.5988 138.626 28.042L137.502 29.0996C136.993 28.5008 136.363 28.2053 135.611 28.2053C135.147 28.2053 134.737 28.3142 134.365 28.5242C133.993 28.7341 133.719 29.0296 133.522 29.3873C133.324 29.7451 133.21 30.1883 133.21 30.6627C133.21 31.137 133.317 31.557 133.522 31.938C133.727 32.3191 134.016 32.599 134.365 32.8012C134.737 33.0034 135.147 33.12 135.611 33.12C136.363 33.12 136.993 32.8245 137.502 32.2024L138.626 33.26C138.269 33.7033 137.829 34.0454 137.304 34.2865C136.78 34.5276 136.18 34.6364 135.535 34.6364C134.752 34.652 134.061 34.4809 133.438 34.131V34.1076Z" fill="white"/>
<path d="M146.67 26.7979V34.4887H144.93V31.3393H141.512V34.4887H139.773V26.7979H141.512V29.8229H144.93V26.7979H146.67Z" fill="white"/>
<path d="M155.336 26.7979V34.4887H153.908L150.171 29.8229V34.4887H148.447V26.7979H149.875L153.612 31.4637V26.7979H155.336Z" fill="white"/>
<path d="M158.663 34.1077C158.033 33.7578 157.539 33.2912 157.19 32.6924C156.833 32.0936 156.65 31.4171 156.65 30.6628C156.65 29.9084 156.833 29.2319 157.19 28.6331C157.547 28.0343 158.033 27.56 158.663 27.2178C159.294 26.8756 159.985 26.6968 160.775 26.6968C161.565 26.6968 162.248 26.8679 162.886 27.2178C163.501 27.5677 163.995 28.0343 164.36 28.6331C164.717 29.2319 164.899 29.9084 164.899 30.6628C164.899 31.4171 164.717 32.0936 164.36 32.6924C164.003 33.2912 163.517 33.7655 162.886 34.1077C162.256 34.4499 161.565 34.6287 160.775 34.6287C159.985 34.6287 159.278 34.4577 158.663 34.1077ZM161.975 32.8013C162.332 32.5991 162.605 32.2958 162.818 31.9381C163.015 31.557 163.129 31.1371 163.129 30.6628C163.129 30.1884 163.023 29.7685 162.818 29.3874C162.613 29.0064 162.324 28.7264 161.975 28.5242C161.625 28.322 161.223 28.2054 160.775 28.2054C160.327 28.2054 159.932 28.3143 159.575 28.5242C159.218 28.7342 158.944 29.0297 158.731 29.3874C158.519 29.7451 158.42 30.1884 158.42 30.6628C158.42 31.1371 158.526 31.557 158.731 31.9381C158.937 32.3191 159.21 32.5991 159.575 32.8013C159.932 33.0035 160.327 33.1201 160.775 33.1201C161.223 33.1201 161.618 33.0112 161.975 32.8013Z" fill="white"/>
<path d="M166.183 26.7978H167.922V33.0345H171.689V34.4809H166.183V26.79V26.7978Z" fill="white"/>
<path d="M174.067 34.1077C173.436 33.7578 172.943 33.2912 172.593 32.6924C172.236 32.0936 172.054 31.4171 172.054 30.6628C172.054 29.9084 172.236 29.2319 172.593 28.6331C172.95 28.0343 173.436 27.56 174.067 27.2178C174.697 26.8756 175.389 26.6968 176.178 26.6968C176.968 26.6968 177.652 26.8679 178.29 27.2178C178.905 27.5677 179.399 28.0343 179.764 28.6331C180.121 29.2319 180.303 29.9084 180.303 30.6628C180.303 31.4171 180.121 32.0936 179.764 32.6924C179.407 33.2912 178.92 33.7655 178.29 34.1077C177.66 34.4499 176.968 34.6287 176.178 34.6287C175.389 34.6287 174.705 34.4577 174.067 34.1077ZM177.379 32.8013C177.736 32.5991 178.009 32.2958 178.222 31.9381C178.419 31.557 178.533 31.1371 178.533 30.6628C178.533 30.1884 178.427 29.7685 178.222 29.3874C178.017 29.0064 177.728 28.7264 177.379 28.5242C177.029 28.322 176.627 28.2054 176.178 28.2054C175.73 28.2054 175.335 28.3143 174.978 28.5242C174.621 28.7342 174.348 29.0297 174.135 29.3874C173.923 29.7451 173.824 30.1884 173.824 30.6628C173.824 31.1371 173.93 31.557 174.135 31.9381C174.34 32.3191 174.614 32.5991 174.978 32.8013C175.335 33.0035 175.73 33.1201 176.178 33.1201C176.627 33.1201 177.022 33.0112 177.379 32.8013Z" fill="white"/>
<path d="M186.668 30.5305H188.255V33.6489C187.838 33.9677 187.382 34.201 186.843 34.3721C186.303 34.5432 185.764 34.6209 185.225 34.6209C184.442 34.6209 183.751 34.4498 183.113 34.1155C182.475 33.7811 182.004 33.2989 181.655 32.7001C181.305 32.1014 181.116 31.4093 181.116 30.6549C181.116 29.9006 181.298 29.2085 181.655 28.6097C182.012 28.011 182.498 27.5366 183.128 27.1944C183.759 26.8523 184.465 26.689 185.255 26.689C185.916 26.689 186.516 26.7978 187.04 27.0389C187.579 27.2566 188.027 27.591 188.392 28.0343L187.268 29.0919C186.729 28.5086 186.083 28.2287 185.331 28.2287C184.853 28.2287 184.42 28.3376 184.055 28.5475C183.69 28.7575 183.394 29.0374 183.197 29.4107C182.999 29.7918 182.885 30.2117 182.885 30.7016C182.885 31.1915 182.992 31.5959 183.197 31.9769C183.402 32.358 183.69 32.6379 184.055 32.8401C184.42 33.0423 184.837 33.159 185.316 33.159C185.825 33.159 186.273 33.0501 186.668 32.8246V30.5383V30.5305Z" fill="white"/>
<path d="M189.866 26.7979H191.605V34.4887H189.866V26.7979Z" fill="white"/>
<path d="M199.208 33.0734V34.5043H193.39V26.7979H199.071V28.2287H195.114V29.9006H198.608V31.2849H195.114V33.0657H199.208V33.0734Z" fill="white"/>
<path d="M201.335 34.3798C200.78 34.2243 200.332 33.9988 199.998 33.7344L200.583 32.3968C200.91 32.6301 201.289 32.8401 201.737 32.9801C202.186 33.12 202.634 33.1978 203.059 33.1978C203.553 33.1978 203.917 33.12 204.153 32.9801C204.381 32.8245 204.51 32.6301 204.51 32.3813C204.51 32.1946 204.434 32.0469 204.297 31.9225C204.16 31.798 203.971 31.7047 203.758 31.6425C203.545 31.5647 203.249 31.487 202.862 31.4092C202.292 31.2692 201.813 31.1293 201.464 30.9815C201.092 30.8415 200.788 30.616 200.522 30.305C200.256 29.9939 200.135 29.5818 200.135 29.0763C200.135 28.633 200.256 28.2287 200.492 27.8632C200.72 27.4977 201.077 27.2177 201.555 27C202.034 26.7978 202.619 26.6812 203.295 26.6812C203.773 26.6812 204.252 26.7434 204.692 26.8522C205.155 26.9611 205.55 27.1322 205.892 27.3577L205.353 28.7108C204.662 28.2986 203.971 28.112 203.272 28.112C202.778 28.112 202.429 28.1898 202.193 28.3453C201.958 28.5008 201.836 28.7264 201.836 28.9752C201.836 29.224 201.973 29.434 202.239 29.5584C202.505 29.6829 202.915 29.8073 203.469 29.9395C204.039 30.0794 204.517 30.2194 204.867 30.3516C205.239 30.4916 205.543 30.7171 205.809 31.0126C206.067 31.3081 206.196 31.7203 206.196 32.2257C206.196 32.669 206.074 33.0578 205.839 33.4233C205.596 33.7888 205.239 34.0688 204.76 34.2865C204.282 34.4887 203.697 34.6053 203.006 34.6053C202.451 34.6364 201.882 34.5431 201.327 34.3876L201.335 34.3798Z" fill="white"/>
<path d="M211.999 34.1077C211.369 33.7578 210.875 33.2912 210.525 32.6924C210.168 32.0936 209.986 31.4171 209.986 30.6628C209.986 29.9084 210.168 29.2319 210.525 28.6331C210.882 28.0343 211.369 27.56 211.999 27.2178C212.629 26.8756 213.321 26.6968 214.111 26.6968C214.901 26.6968 215.584 26.8679 216.222 27.2178C216.837 27.5677 217.331 28.0343 217.696 28.6331C218.053 29.2319 218.235 29.9084 218.235 30.6628C218.235 31.4171 218.053 32.0936 217.696 32.6924C217.339 33.2912 216.853 33.7655 216.222 34.1077C215.592 34.4499 214.901 34.6287 214.111 34.6287C213.321 34.6287 212.637 34.4577 211.999 34.1077ZM215.311 32.8013C215.668 32.5991 215.941 32.2958 216.154 31.9381C216.351 31.557 216.465 31.1371 216.465 30.6628C216.465 30.1884 216.359 29.7685 216.154 29.3874C215.949 29.0064 215.66 28.7264 215.311 28.5242C214.961 28.322 214.559 28.2054 214.111 28.2054C213.662 28.2054 213.267 28.3143 212.91 28.5242C212.553 28.7342 212.28 29.0297 212.067 29.3874C211.855 29.7451 211.756 30.1884 211.756 30.6628C211.756 31.1371 211.862 31.557 212.067 31.9381C212.272 32.3191 212.546 32.5991 212.91 32.8013C213.267 33.0035 213.662 33.1201 214.111 33.1201C214.559 33.1201 214.954 33.0112 215.311 32.8013Z" fill="white"/>
<path d="M221.281 28.2365V30.2661H224.76V31.697H221.281V34.5043H219.541V26.7979H225.223V28.2287H221.281V28.2365Z" fill="white"/>
<path d="M71.4816 41.4327H69.0814V39.9863H75.6211V41.4327H73.221V47.6694H71.4816V41.4327Z" fill="white"/>
<path d="M83.4521 39.9863V47.6772H81.7128V44.5278H78.2948V47.6772H76.5554V39.9863H78.2948V43.0114H81.7128V39.9863H83.4521Z" fill="white"/>
<path d="M91.0401 46.2542V47.685H85.2219V39.9941H90.9034V41.425H86.9461V43.0969H90.44V44.4811H86.9461V46.2619H91.0401V46.2464V46.2542Z" fill="white"/>
<path d="M100.261 47.6772L98.8179 45.5309H97.2153V47.6772H95.4759V39.9863H98.7192C99.38 39.9863 99.9649 40.0952 100.459 40.3363C100.952 40.554 101.317 40.8884 101.598 41.3005C101.856 41.7282 102 42.2182 102 42.7781C102 43.338 101.864 43.8512 101.598 44.2556C101.34 44.6677 100.952 44.9788 100.459 45.2043L102.137 47.6772H100.261ZM99.8129 41.7827C99.5395 41.5494 99.1521 41.4327 98.628 41.4327H97.2153V44.1078H98.628C99.1521 44.1078 99.5547 43.999 99.8129 43.7579C100.086 43.5246 100.231 43.1902 100.231 42.7625C100.231 42.3348 100.094 42.0082 99.8129 41.7671V41.7827Z" fill="white"/>
<path d="M109.171 46.2542V47.685H103.352V39.9941H109.034V41.425H105.077V43.0969H108.571V44.4811H105.077V46.2619H109.171V46.2464V46.2542Z" fill="white"/>
<path d="M115.543 40.3363C116.037 40.554 116.402 40.8884 116.683 41.3006C116.964 41.7127 117.085 42.2182 117.085 42.7781C117.085 43.338 116.948 43.8357 116.683 44.2556C116.424 44.6833 116.037 44.9944 115.543 45.2199C115.05 45.4454 114.48 45.5543 113.804 45.5543H112.292V47.685H110.553V39.9941H113.796C114.472 39.9941 115.042 40.103 115.536 40.3441L115.543 40.3363ZM114.913 43.7735C115.186 43.5402 115.315 43.2214 115.315 42.7937C115.315 42.3659 115.179 42.0393 114.913 41.7983C114.639 41.565 114.252 41.4483 113.728 41.4483H112.315V44.1079H113.728C114.237 44.1079 114.639 43.9834 114.913 43.7579V43.7735Z" fill="white"/>
<path d="M119.113 46.9074C118.513 46.2931 118.217 45.4299 118.217 44.3101V40.0097H119.956V44.2479C119.956 45.6165 120.511 46.3086 121.635 46.3086C122.174 46.3086 122.592 46.1376 122.881 45.8032C123.169 45.4688 123.314 44.9555 123.314 44.2401V40.002H125.038V44.3023C125.038 45.4377 124.749 46.3009 124.141 46.8996C123.541 47.514 122.713 47.8173 121.635 47.8173C120.556 47.8173 119.713 47.4984 119.113 46.8996V46.9074Z" fill="white"/>
<path d="M133.256 44.3801C133.499 44.7145 133.628 45.1033 133.628 45.5777C133.628 46.2542 133.37 46.7752 132.861 47.1407C132.352 47.5062 131.6 47.6928 130.628 47.6928H126.747V40.002H130.423C131.35 40.002 132.041 40.173 132.535 40.5385C133.028 40.904 133.271 41.3862 133.271 42.0005C133.271 42.3815 133.18 42.7082 133.013 42.9959C132.846 43.2914 132.595 43.5169 132.276 43.688C132.694 43.8124 133.013 44.0535 133.264 44.3801H133.256ZM128.471 41.3239V43.1359H130.195C130.628 43.1359 130.947 43.0581 131.167 42.9026C131.388 42.747 131.509 42.5215 131.509 42.226C131.509 41.9305 131.403 41.705 131.167 41.5495C130.955 41.3939 130.613 41.3317 130.195 41.3317H128.471V41.3239ZM131.532 46.0987C131.76 45.9431 131.889 45.7021 131.889 45.391C131.889 44.7611 131.426 44.4267 130.507 44.4267H128.478V46.332H130.507C130.955 46.332 131.304 46.2542 131.539 46.0987H131.532Z" fill="white"/>
<path d="M134.942 39.9863H136.682V46.223H140.449V47.6694H134.942V39.9785V39.9863Z" fill="white"/>
<path d="M141.421 39.9863H143.161V47.6772H141.421V39.9863Z" fill="white"/>
<path d="M146.457 47.2961C145.842 46.9462 145.348 46.4796 144.999 45.8808C144.649 45.282 144.46 44.5899 144.46 43.8356C144.46 43.0813 144.642 42.3892 144.999 41.7904C145.356 41.1916 145.842 40.7173 146.457 40.3751C147.072 40.0329 147.764 39.8696 148.553 39.8696C149.199 39.8696 149.799 39.9785 150.323 40.2196C150.847 40.4606 151.295 40.7872 151.645 41.2305L150.521 42.2881C150.012 41.6893 149.381 41.3938 148.629 41.3938C148.166 41.3938 147.756 41.5027 147.384 41.7126C147.012 41.9226 146.738 42.2181 146.541 42.5758C146.343 42.9335 146.229 43.3768 146.229 43.8512C146.229 44.3255 146.336 44.7454 146.541 45.1265C146.746 45.5075 147.034 45.7875 147.384 45.9897C147.756 46.1919 148.166 46.3085 148.629 46.3085C149.381 46.3085 150.012 46.013 150.521 45.3909L151.645 46.4485C151.288 46.8917 150.847 47.2339 150.323 47.475C149.799 47.716 149.199 47.8249 148.553 47.8249C147.786 47.8405 147.095 47.6694 146.457 47.3194V47.2961Z" fill="white"/>
<path d="M157.38 47.2962C156.749 46.9462 156.255 46.4797 155.906 45.8809C155.549 45.2821 155.367 44.6055 155.367 43.8512C155.367 43.0969 155.549 42.4204 155.906 41.8216C156.263 41.2228 156.749 40.7484 157.38 40.4063C158.01 40.0641 158.701 39.8853 159.491 39.8853C160.281 39.8853 160.965 40.0563 161.603 40.4063C162.218 40.7562 162.712 41.2228 163.076 41.8216C163.433 42.4204 163.615 43.0969 163.615 43.8512C163.615 44.6055 163.433 45.2821 163.076 45.8809C162.719 46.4797 162.233 46.954 161.603 47.2962C160.972 47.6384 160.281 47.8172 159.491 47.8172C158.701 47.8172 157.995 47.6461 157.38 47.2962ZM160.691 45.9742C161.048 45.772 161.322 45.4687 161.534 45.111C161.747 44.7533 161.846 44.31 161.846 43.8357C161.846 43.3613 161.739 42.9414 161.534 42.5603C161.329 42.1793 161.041 41.8993 160.691 41.6972C160.342 41.495 159.939 41.3783 159.491 41.3783C159.043 41.3783 158.648 41.4872 158.291 41.6972C157.934 41.9071 157.661 42.2026 157.448 42.5603C157.235 42.9181 157.136 43.3613 157.136 43.8357C157.136 44.31 157.243 44.73 157.448 45.111C157.653 45.4921 157.926 45.772 158.291 45.9742C158.648 46.1764 159.043 46.293 159.491 46.293C159.939 46.293 160.334 46.1997 160.691 45.9742Z" fill="white"/>
<path d="M166.646 41.4172V43.4469H170.125V44.8777H166.646V47.685H164.907V39.9941H170.588V41.425H166.646V41.4095V41.4172Z" fill="white"/>
<path d="M175.632 46.9074C175.032 46.2931 174.735 45.4299 174.735 44.3101V40.0097H176.475V44.2479C176.475 45.6165 177.029 46.3086 178.153 46.3086C178.693 46.3086 179.11 46.1376 179.399 45.8032C179.688 45.4688 179.832 44.9555 179.832 44.2401V40.002H181.556V44.3023C181.556 45.4377 181.267 46.3009 180.66 46.8996C180.06 47.514 179.232 47.8173 178.153 47.8173C177.075 47.8173 176.232 47.4984 175.632 46.8996V46.9074Z" fill="white"/>
<path d="M189.341 46.223V47.6694H182.771V46.5185L186.896 41.4327H182.863V39.9863H189.19V41.1372L185.08 46.223H189.341Z" fill="white"/>
<path d="M196.975 44.3801C197.218 44.7145 197.347 45.1033 197.347 45.5777C197.347 46.2542 197.089 46.7752 196.58 47.1407C196.071 47.5062 195.319 47.6928 194.347 47.6928H190.466V40.002H194.142C195.069 40.002 195.76 40.173 196.253 40.5385C196.747 40.904 196.99 41.3862 196.99 42.0005C196.99 42.3815 196.899 42.7082 196.732 42.9959C196.565 43.2914 196.314 43.5169 195.995 43.688C196.413 43.8124 196.747 44.0535 196.983 44.3801H196.975ZM192.19 41.3239V43.1359H193.914C194.347 43.1359 194.666 43.0581 194.886 42.9026C195.107 42.747 195.228 42.5215 195.228 42.226C195.228 41.9305 195.122 41.705 194.886 41.5495C194.674 41.3939 194.332 41.3317 193.914 41.3317H192.19V41.3239ZM195.251 46.0987C195.479 45.9431 195.608 45.7021 195.608 45.391C195.608 44.7611 195.144 44.4267 194.225 44.4267H192.197V46.332H194.225C194.674 46.332 195.023 46.2542 195.258 46.0987H195.251Z" fill="white"/>
<path d="M204.487 46.2542V47.685H198.669V39.9941H204.35V41.425H200.393V43.0969H203.887V44.4811H200.393V46.2619H204.487V46.2464V46.2542Z" fill="white"/>
<path d="M208.611 44.6521L207.594 45.7253V47.6616H205.869V39.9707H207.594V43.5634L210.92 39.9707H212.857L209.751 43.4079L213.047 47.6771H211.019L208.619 44.6521H208.611Z" fill="white"/>
<path d="M213.814 39.9863H215.554V47.6772H213.814V39.9863Z" fill="white"/>
<path d="M218.075 47.5683C217.521 47.4128 217.073 47.1872 216.739 46.9228L217.323 45.5853C217.65 45.8186 218.03 46.0286 218.478 46.1685C218.926 46.3085 219.374 46.3863 219.8 46.3863C220.293 46.3863 220.658 46.3085 220.893 46.1685C221.121 46.013 221.25 45.8186 221.25 45.5697C221.25 45.3831 221.174 45.2354 221.038 45.1109C220.901 44.9865 220.711 44.8932 220.498 44.831C220.286 44.7532 219.989 44.6755 219.602 44.5977C219.032 44.4577 218.554 44.3177 218.205 44.17C217.832 44.03 217.529 43.8045 217.263 43.4934C216.997 43.1824 216.875 42.7702 216.875 42.2648C216.875 41.8215 216.997 41.4171 217.232 41.0516C217.46 40.6862 217.817 40.4062 218.296 40.1885C218.774 39.9863 219.359 39.8696 220.035 39.8696C220.514 39.8696 220.992 39.9318 221.433 40.0407C221.896 40.1496 222.291 40.3207 222.633 40.5462L222.093 41.8993C221.402 41.4871 220.711 41.3005 220.012 41.3005C219.519 41.3005 219.169 41.3783 218.934 41.5338C218.698 41.6893 218.577 41.9148 218.577 42.1637C218.577 42.4281 218.713 42.6225 218.979 42.7469C219.238 42.8713 219.655 42.9958 220.21 43.128C220.779 43.2679 221.258 43.4079 221.607 43.5557C221.98 43.6956 222.283 43.9211 222.549 44.2167C222.807 44.5122 222.937 44.9243 222.937 45.4298C222.937 45.873 222.815 46.2619 222.58 46.6273C222.337 46.9928 221.98 47.2728 221.501 47.4905C221.022 47.6927 220.438 47.8094 219.746 47.8094C219.192 47.8249 218.622 47.7316 218.068 47.5761L218.075 47.5683Z" fill="white"/>
<path d="M225.633 41.4327H223.233V39.9863H229.773V41.4327H227.372V47.6694H225.633V41.4327Z" fill="white"/>
<path d="M235.279 46.0365H231.785L231.125 47.6928H229.34L232.697 40.002H234.421L237.778 47.6928H235.948L235.287 46.0365H235.279ZM234.725 44.6834L233.54 41.7361L232.355 44.6834H234.725Z" fill="white"/>
<path d="M245.435 39.9863V47.6772H244.007L240.27 43.0114V47.6772H238.545V39.9863H239.973L243.71 44.6522V39.9863H245.435Z" fill="white"/>
</svg>
