<svg width="240" height="61" viewBox="0 0 240 61" fill="none" xmlns="http://www.w3.org/2000/svg">
<g clip-path="url(#clip0_3_289)">
<path d="M95.7908 23.7074V6.9321H103.159C104.682 6.9321 105.996 7.17573 107.097 7.663C108.2 8.15027 109.052 8.84993 109.65 9.75991C110.25 10.6699 110.55 11.7569 110.55 13.0188C110.55 14.2807 110.25 15.3427 109.65 16.2547C109.05 17.1647 108.198 17.8644 107.097 18.3516C105.994 18.8389 104.682 19.0825 103.159 19.0825H97.9798L99.7314 17.3334V23.7074H95.7929H95.7908ZM99.7293 17.7644L97.9777 15.9195H102.939C104.154 15.9195 105.062 15.6633 105.662 15.1532C106.263 14.643 106.563 13.9308 106.563 13.0209C106.563 12.1109 106.263 11.3758 105.662 10.8636C105.062 10.3534 104.154 10.0973 102.939 10.0973H97.9777L99.7293 8.2523V17.7665V17.7644Z" fill="#FCFCFC"/>
<path d="M113.347 23.7074V6.9321H120.715C122.239 6.9321 123.553 7.17573 124.654 7.663C125.757 8.15027 126.606 8.84993 127.206 9.75991C127.806 10.6699 128.106 11.7569 128.106 13.0188C128.106 14.2807 127.806 15.3406 127.206 16.2422C126.606 17.146 125.755 17.8352 124.654 18.3162C123.551 18.7952 122.239 19.0346 120.715 19.0346H115.536L117.288 17.3334V23.7074H113.349H113.347ZM117.286 17.7644L115.534 15.9424H120.495C121.71 15.9424 122.619 15.6821 123.219 15.1636C123.819 14.6451 124.119 13.9288 124.119 13.0188C124.119 12.1088 123.819 11.3737 123.219 10.8615C122.619 10.3513 121.713 10.0952 120.495 10.0952H115.534L117.286 8.25022V17.7644ZM124.168 23.7074L119.912 17.6207H124.119L128.423 23.7074H124.168Z" fill="#FCFCFC"/>
<path d="M135.136 20.5922H144.401V23.7074H131.221V6.9321H144.084V10.0473H135.136V20.5922ZM134.845 13.6893H143.041V16.7087H134.845V13.6893Z" fill="#FCFCFC"/>
<path d="M153.13 23.9948C151.769 23.9948 150.463 23.8157 149.215 23.4554C147.966 23.0952 146.96 22.6288 146.2 22.054L147.537 19.1304C148.266 19.6427 149.13 20.0612 150.128 20.3882C151.125 20.7151 152.135 20.8796 153.155 20.8796C153.933 20.8796 154.563 20.8046 155.04 20.6526C155.518 20.5006 155.871 20.2903 156.099 20.0175C156.325 19.7468 156.439 19.4344 156.439 19.0825C156.439 18.6348 156.261 18.2787 155.904 18.0164C155.547 17.7519 155.078 17.5374 154.493 17.3688C153.91 17.2001 153.265 17.0418 152.56 16.8898C151.854 16.7378 151.148 16.5504 150.444 16.3276C149.739 16.1048 149.094 15.8153 148.511 15.4655C147.928 15.1136 147.453 14.6513 147.089 14.0766C146.724 13.5019 146.542 12.7668 146.542 11.8714C146.542 10.9135 146.806 10.0389 147.332 9.24765C147.858 8.45636 148.653 7.82542 149.715 7.35481C150.776 6.8842 152.112 6.6489 153.715 6.6489C154.784 6.6489 155.839 6.77175 156.876 7.01955C157.914 7.26735 158.829 7.63801 159.623 8.1336L158.408 11.0822C157.614 10.6345 156.819 10.3034 156.025 10.0868C155.23 9.87027 154.453 9.76407 153.69 9.76407C152.927 9.76407 152.304 9.85153 151.818 10.0285C151.332 10.2055 150.983 10.4325 150.772 10.7115C150.561 10.9906 150.455 11.3154 150.455 11.6819C150.455 12.1129 150.633 12.4607 150.99 12.7252C151.347 12.9896 151.816 13.1999 152.401 13.3603C152.984 13.5206 153.629 13.6809 154.334 13.8392C155.04 13.9995 155.746 14.1828 156.449 14.391C157.155 14.5993 157.8 14.8783 158.383 15.2302C158.966 15.5821 159.441 16.0444 159.805 16.6191C160.17 17.1939 160.352 17.9206 160.352 18.7993C160.352 19.7426 160.084 20.6047 159.549 21.3877C159.015 22.1706 158.216 22.8016 157.153 23.2805C156.09 23.7595 154.749 23.9989 153.128 23.9989L153.13 23.9948Z" fill="#FCFCFC"/>
<path d="M163.052 23.7074V6.9321H166.991V23.7074H163.052Z" fill="#FCFCFC"/>
<path d="M171.027 23.7074V6.9321H178.76C180.609 6.9321 182.238 7.27985 183.647 7.97535C185.059 8.67085 186.16 9.64122 186.954 10.8865C187.749 12.1317 188.146 13.6102 188.146 15.3198C188.146 17.0294 187.749 18.487 186.954 19.7406C186.16 20.9941 185.057 21.9687 183.647 22.6642C182.238 23.3597 180.609 23.7074 178.76 23.7074H171.027ZM174.965 20.5194H178.564C179.698 20.5194 180.683 20.307 181.518 19.8842C182.352 19.4615 183.001 18.8576 183.464 18.0747C183.926 17.2917 184.157 16.3734 184.157 15.3177C184.157 14.2619 183.926 13.3249 183.464 12.5502C183.001 11.7756 182.352 11.1759 181.518 10.7532C180.683 10.3305 179.698 10.1181 178.564 10.1181H174.965V20.5194Z" fill="#FCFCFC"/>
<path d="M195.028 20.5922H204.293V23.7074H191.113V6.9321H203.976V10.0473H195.028V20.5922ZM194.736 13.6893H202.93V16.7087H194.736V13.6893Z" fill="#FCFCFC"/>
<path d="M207.431 23.7074V6.9321H210.689L220.732 19.0097H219.151V6.9321H223.041V23.7074H219.806L209.738 11.6299H211.319V23.7074H207.429H207.431Z" fill="#FCFCFC"/>
<path d="M230.604 23.7074V10.0952H225.156V6.9321H239.989V10.0952H234.542V23.7074H230.604Z" fill="#FCFCFC"/>
<path d="M98.3686 46.2154V34.9312H93.8532V32.3095H106.151V34.9312H101.635V46.2154H98.3686Z" fill="#239AC8"/>
<path d="M111.15 43.6333H118.83V46.2154H107.904V32.3095H118.568V34.8916H111.15V43.6333ZM110.909 37.911H117.702V40.414H110.909V37.911Z" fill="#239AC8"/>
<path d="M128.182 46.4528C127.094 46.4528 126.082 46.2779 125.148 45.9259C124.214 45.5761 123.405 45.0743 122.718 44.4267C122.034 43.777 121.499 43.0169 121.117 42.1423C120.734 41.2677 120.542 40.3078 120.542 39.2625C120.542 38.2171 120.734 37.2551 121.117 36.3826C121.499 35.508 122.038 34.7479 122.729 34.0983C123.422 33.4486 124.231 32.9488 125.159 32.599C126.086 32.2491 127.101 32.0721 128.204 32.0721C129.427 32.0721 130.532 32.2804 131.519 32.6968C132.508 33.1133 133.336 33.7276 134.008 34.5335L131.912 36.4409C131.428 35.8974 130.891 35.4913 130.3 35.2186C129.708 34.9479 129.063 34.8104 128.364 34.8104C127.705 34.8104 127.101 34.9166 126.549 35.129C125.998 35.3414 125.52 35.6454 125.119 36.0432C124.715 36.4409 124.402 36.9115 124.18 37.4529C123.959 37.9964 123.849 38.5982 123.849 39.2604C123.849 39.9226 123.961 40.5264 124.18 41.0678C124.402 41.6113 124.715 42.0819 125.119 42.4776C125.522 42.8753 126 43.1793 126.549 43.3917C127.101 43.6041 127.705 43.7103 128.364 43.7103C129.063 43.7103 129.708 43.575 130.3 43.3022C130.891 43.0315 131.428 42.6171 131.912 42.0611L134.008 43.9685C133.336 44.7765 132.505 45.3929 131.519 45.8156C130.532 46.2404 129.418 46.4507 128.182 46.4507V46.4528Z" fill="#239AC8"/>
<path d="M139.472 46.2154H136.205V32.3095H139.472V46.2154ZM146.123 40.514H139.229V37.7923H146.123V40.514ZM145.88 32.3095H149.147V46.2154H145.88V32.3095Z" fill="#239AC8"/>
<path d="M156.344 46.2154L162.634 32.3095H165.858L172.168 46.2154H168.741L163.581 33.9379H164.872L159.691 46.2154H156.344ZM159.488 43.2356L160.354 40.793H167.612L168.5 43.2356H159.49H159.488Z" fill="#239AC8"/>
<path d="M176.261 46.2154L171.644 32.3095H175.031L179.043 44.6266H177.351L181.543 32.3095H184.567L188.598 44.6266H186.965L191.077 32.3095H194.202L189.585 46.2154H186.077L182.509 35.4081H183.436L179.768 46.2154H176.261Z" fill="#239AC8"/>
<path d="M193.697 46.2154L199.987 32.3095H203.211L209.521 46.2154H206.093L200.934 33.9379H202.225L197.044 46.2154H193.697ZM196.841 43.2356L197.707 40.793H204.965L205.852 43.2356H196.843H196.841Z" fill="#239AC8"/>
<path d="M210.993 46.2154V32.3095H217.102C218.365 32.3095 219.454 32.5115 220.368 32.9155C221.281 33.3195 221.987 33.8984 222.486 34.6543C222.982 35.4081 223.232 36.3097 223.232 37.355C223.232 38.4004 222.982 39.2791 222.486 40.0267C221.989 40.7742 221.283 41.3469 220.368 41.7446C219.454 42.1423 218.365 42.3402 217.102 42.3402H212.808L214.26 40.9304V46.2154H210.993ZM214.26 41.2886L212.808 39.7789H216.92C217.928 39.7789 218.68 39.5644 219.179 39.1334C219.675 38.7023 219.925 38.1109 219.925 37.355C219.925 36.5992 219.675 35.9911 219.179 35.5663C218.682 35.1415 217.928 34.9312 216.92 34.9312H212.808L214.26 33.4007V41.2886ZM219.965 46.2154L216.436 41.1699H219.923L223.491 46.2154H219.963H219.965Z" fill="#239AC8"/>
<path d="M225.809 46.2154V32.3095H232.22C233.752 32.3095 235.102 32.5969 236.273 33.1737C237.441 33.7505 238.356 34.5543 239.013 35.5871C239.672 36.62 240 37.8444 240 39.2625C240 40.6805 239.67 41.8883 239.013 42.9274C238.354 43.9665 237.441 44.7744 236.273 45.3512C235.104 45.928 233.752 46.2154 232.22 46.2154H225.809ZM229.076 43.5729H232.059C233 43.5729 233.815 43.398 234.508 43.0461C235.199 42.6962 235.738 42.1944 236.121 41.5468C236.503 40.8971 236.695 40.137 236.695 39.2625C236.695 38.3879 236.503 37.6112 236.121 36.9677C235.738 36.3264 235.199 35.8287 234.508 35.4768C233.815 35.1269 233 34.9499 232.059 34.9499H229.076V43.5729Z" fill="#239AC8"/>
<path d="M15.4753 0H30.9485V15.251L15.4753 0Z" fill="url(#paint0_linear_3_289)"/>
<path d="M46.4237 15.251H30.9484V30.5L46.4237 15.251Z" fill="url(#paint1_linear_3_289)"/>
<path d="M0 0H15.4753V15.251L0 0Z" fill="url(#paint2_linear_3_289)"/>
<path d="M15.4753 15.251H30.9485V30.5L15.4753 15.251Z" fill="url(#paint3_linear_3_289)"/>
<path d="M30.9484 30.5H46.4237V15.251L30.9484 30.5Z" fill="url(#paint4_linear_3_289)"/>
<path d="M61.8969 30.5H46.4237V15.251L61.8969 30.5Z" fill="url(#paint5_linear_3_289)"/>
<path d="M61.8969 30.5H46.4237V45.751L61.8969 30.5Z" fill="url(#paint6_linear_3_289)"/>
<path d="M30.9484 30.5H46.4237V45.751L30.9484 30.5Z" fill="url(#paint7_linear_3_289)"/>
<path d="M46.4237 45.751H30.9484V61L46.4237 45.751Z" fill="url(#paint8_linear_3_289)"/>
<path d="M46.4237 45.751H30.9484V30.5L46.4237 45.751Z" fill="url(#paint9_linear_3_289)"/>
<path d="M46.4237 15.251H61.8969V30.5L46.4237 15.251Z" fill="url(#paint10_linear_3_289)"/>
<path d="M30.9485 15.251H15.4753V0L30.9485 15.251Z" fill="url(#paint11_linear_3_289)"/>
<path d="M77.3722 15.251H61.8969V0L77.3722 15.251Z" fill="url(#paint12_linear_3_289)"/>
<path d="M46.4237 15.251H30.9484V0L46.4237 15.251Z" fill="url(#paint13_linear_3_289)"/>
<path d="M46.4237 15.251H61.8969V0L46.4237 15.251Z" fill="url(#paint14_linear_3_289)"/>
</g>
<defs>
<linearGradient id="paint0_linear_3_289" x1="18.968" y1="-4.28962" x2="40.1582" y2="17.7613" gradientUnits="userSpaceOnUse">
<stop stop-color="#2CA9DB"/>
<stop offset="1" stop-color="#1C8EBA"/>
</linearGradient>
<linearGradient id="paint1_linear_3_289" x1="42.5211" y1="11.2967" x2="27.3669" y2="27.3788" gradientUnits="userSpaceOnUse">
<stop stop-color="#39C1EA"/>
<stop offset="1" stop-color="#2CA9DB"/>
</linearGradient>
<linearGradient id="paint2_linear_3_289" x1="3.57089" y1="-4.12719" x2="19.196" y2="11.808" gradientUnits="userSpaceOnUse">
<stop stop-color="#1472B2"/>
<stop offset="1" stop-color="#1C8EBA"/>
</linearGradient>
<linearGradient id="paint3_linear_3_289" x1="19.3695" y1="11.3467" x2="34.4498" y2="27.1197" gradientUnits="userSpaceOnUse">
<stop stop-color="#1C8EBA"/>
<stop offset="1" stop-color="#2CA9DB"/>
</linearGradient>
<linearGradient id="paint4_linear_3_289" x1="50.2122" y1="18.7369" x2="35.0559" y2="34.665" gradientUnits="userSpaceOnUse">
<stop stop-color="#2CA9DB"/>
<stop offset="1" stop-color="#39C1EA"/>
</linearGradient>
<linearGradient id="paint5_linear_3_289" x1="41.7795" y1="18.3891" x2="57.7227" y2="34.2497" gradientUnits="userSpaceOnUse">
<stop stop-color="#4ED1F9"/>
<stop offset="1" stop-color="#39C1EA"/>
</linearGradient>
<linearGradient id="paint6_linear_3_289" x1="58.0408" y1="26.4873" x2="42.6751" y2="42.8453" gradientUnits="userSpaceOnUse">
<stop stop-color="#4ED1F9"/>
<stop offset="1" stop-color="#39C1EA"/>
</linearGradient>
<linearGradient id="paint7_linear_3_289" x1="34.065" y1="26.554" x2="50.3822" y2="42.2865" gradientUnits="userSpaceOnUse">
<stop stop-color="#2CA9DB"/>
<stop offset="1" stop-color="#39C1EA"/>
</linearGradient>
<linearGradient id="paint8_linear_3_289" x1="26.7838" y1="57.5704" x2="41.9253" y2="42.0879" gradientUnits="userSpaceOnUse">
<stop stop-color="#2CA9DB"/>
<stop offset="1" stop-color="#39C1EA"/>
</linearGradient>
<linearGradient id="paint9_linear_3_289" x1="26.6042" y1="34.0087" x2="43.2082" y2="50.2079" gradientUnits="userSpaceOnUse">
<stop stop-color="#39C1EA"/>
<stop offset="1" stop-color="#2CA9DB"/>
</linearGradient>
<linearGradient id="paint10_linear_3_289" x1="50.0961" y1="11.2238" x2="65.1819" y2="26.6097" gradientUnits="userSpaceOnUse">
<stop stop-color="#39C1EA"/>
<stop offset="1" stop-color="#4ED1F9"/>
</linearGradient>
<linearGradient id="paint11_linear_3_289" x1="7.6341" y1="0.231139" x2="27.4519" y2="19.4757" gradientUnits="userSpaceOnUse">
<stop stop-color="#1C8EBA"/>
<stop offset="1" stop-color="#2CA9DB"/>
</linearGradient>
<linearGradient id="paint12_linear_3_289" x1="57.8125" y1="3.63784" x2="73.6743" y2="19.5764" gradientUnits="userSpaceOnUse">
<stop stop-color="#4ED1F9"/>
<stop offset="1" stop-color="#84DEF9"/>
</linearGradient>
<linearGradient id="paint13_linear_3_289" x1="26.8303" y1="3.62743" x2="42.4621" y2="19.2524" gradientUnits="userSpaceOnUse">
<stop stop-color="#39C1EA"/>
<stop offset="1" stop-color="#2CA9DB"/>
</linearGradient>
<linearGradient id="paint14_linear_3_289" x1="66.0446" y1="3.17973" x2="50.8893" y2="19.0288" gradientUnits="userSpaceOnUse">
<stop stop-color="#39C1EA"/>
<stop offset="1" stop-color="#4ED1F9"/>
</linearGradient>
<clipPath id="clip0_3_289">
<rect width="240" height="61" fill="white"/>
</clipPath>
</defs>
</svg>
